<svg width="30" height="30" viewBox="0 0 30 30" fill="none" xmlns="http://www.w3.org/2000/svg">
    <path d="M4.63783 1.46722C5.02439 0.809387 5.97561 0.809386 6.36217 1.46722L6.8806 2.34948C7.08613 2.69925 7.48261 2.89018 7.88422 2.8328L8.89723 2.68804C9.65256 2.58011 10.2456 3.32381 9.97234 4.03618L9.6058 4.99159C9.46048 5.37036 9.55841 5.79938 9.85367 6.07759L10.5984 6.77935C11.1538 7.30259 10.9421 8.22997 10.2147 8.46045L9.23925 8.76956C8.85251 8.89211 8.57814 9.23616 8.54472 9.64047L8.46043 10.6603C8.39758 11.4207 7.54055 11.8334 6.90686 11.4085L6.05697 10.8385C5.72003 10.6126 5.27997 10.6126 4.94303 10.8385L4.09314 11.4085C3.45945 11.8334 2.60242 11.4207 2.53957 10.6603L2.45528 9.64047C2.42186 9.23617 2.14749 8.89211 1.76075 8.76956L0.785251 8.46045C0.0578955 8.22997 -0.153772 7.30259 0.40155 6.77935L1.14633 6.07759C1.44159 5.79939 1.53952 5.37036 1.3942 4.99159L1.02766 4.03618C0.754361 3.32381 1.34744 2.58011 2.10277 2.68804L3.11578 2.8328C3.51739 2.89018 3.91387 2.69925 4.1194 2.34948L4.63783 1.46722Z" fill="#7040B0"/>
</svg>
